<svg width="16" height="16" viewBox="0 0 16 16" fill="none" xmlns="http://www.w3.org/2000/svg">
<path d="M12.9906 3.50938C12.8688 2.10625 11.6844 1 10.25 1C9.69375 1 9.1625 1.16563 8.7125 1.475C8.00937 0.553125 6.92188 0 5.75 0C3.68125 0 2 1.68125 2 3.75V3.7625C0.803125 4.2625 0 5.43437 0 6.75C0 8.54062 1.45938 10 3.25 10H12.75C14.5406 10 16 8.54062 16 6.75C16 5.0375 14.6688 3.63125 12.9906 3.50938ZM12.75 9H3.25C2.00938 9 1 7.99062 1 6.75C1 5.74062 1.68438 4.85313 2.66563 4.5875L3.08125 4.475L3.01875 3.9375C3.00937 3.875 3 3.8125 3 3.75C3 2.23438 4.23438 1 5.75 1C6.75625 1 7.68125 1.55938 8.1625 2.4625L8.49375 3.08125L8.96875 2.56562C9.30937 2.2 9.7625 2 10.25 2C11.2156 2 12 2.78437 12 3.75C12 3.8 11.9906 3.84687 11.975 3.96563L11.8969 4.59062L12.6313 4.51562C12.6688 4.50938 12.7094 4.50313 12.75 4.50313C13.9906 4.50313 15 5.5125 15 6.75313C15 7.99375 13.9906 9 12.75 9ZM1.5 11.5C1.225 11.5 1 11.725 1 12V14.5C1 14.775 1.225 15 1.5 15C1.775 15 2 14.775 2 14.5V12C2 11.725 1.775 11.5 1.5 11.5ZM4.5 12.5C4.225 12.5 4 12.725 4 13V15.5C4 15.775 4.225 16 4.5 16C4.775 16 5 15.775 5 15.5V13C5 12.725 4.775 12.5 4.5 12.5ZM7.5 11.5C7.225 11.5 7 11.725 7 12V14.5C7 14.775 7.225 15 7.5 15C7.775 15 8 14.775 8 14.5V12C8 11.725 7.775 11.5 7.5 11.5ZM10.5 12.5C10.225 12.5 10 12.725 10 13V15.5C10 15.775 10.225 16 10.5 16C10.775 16 11 15.775 11 15.5V13C11 12.725 10.775 12.5 10.5 12.5ZM13.5 11.5C13.225 11.5 13 11.725 13 12V14.5C13 14.775 13.225 15 13.5 15C13.775 15 14 14.775 14 14.5V12C14 11.725 13.775 11.5 13.5 11.5Z" fill="black"/>
</svg>
