<svg width="17" height="16" viewBox="0 0 17 16" fill="none" xmlns="http://www.w3.org/2000/svg">
<g clip-path="url(#clip0_378_11482)">
<path d="M5.79963 11.5656C5.56213 11.4281 5.25588 11.5094 5.11838 11.7531L3.11838 15.2531C2.98088 15.4938 3.06525 15.8 3.30588 15.9344C3.384 15.9781 3.46838 16 3.55275 16C3.72463 16 3.89338 15.9094 3.98713 15.7469L5.98713 12.2469C6.12463 12.0094 6.04025 11.7031 5.79963 11.5656ZM8.79963 11.5656C8.56213 11.4281 8.25588 11.5094 8.11838 11.7531L6.11838 15.2531C5.98088 15.4938 6.06525 15.8 6.30588 15.9344C6.384 15.9781 6.46838 16 6.55275 16C6.72463 16 6.89338 15.9094 6.98713 15.7469L8.98713 12.2469C9.12463 12.0094 9.04025 11.7031 8.79963 11.5656ZM2.79963 11.5656C2.56213 11.4281 2.25588 11.5094 2.11838 11.7531L0.118377 15.2531C-0.019123 15.4938 0.065252 15.8 0.305877 15.9344C0.384002 15.9781 0.468377 16 0.552752 16C0.724627 16 0.893377 15.9094 0.987127 15.7469L2.98713 12.2469C3.12463 12.0094 3.04025 11.7031 2.79963 11.5656ZM14.7996 11.5656C14.5621 11.4281 14.2559 11.5094 14.1184 11.7531L12.1184 15.2531C11.9809 15.4938 12.0653 15.8 12.3059 15.9344C12.384 15.9781 12.4684 16 12.5528 16C12.7246 16 12.8934 15.9094 12.9871 15.7469L14.9871 12.2469C15.1246 12.0094 15.0403 11.7031 14.7996 11.5656ZM11.7996 11.5656C11.5621 11.4281 11.2559 11.5094 11.1184 11.7531L9.11838 15.2531C8.98088 15.4938 9.06525 15.8 9.30588 15.9344C9.384 15.9781 9.46838 16 9.55275 16C9.72463 16 9.89338 15.9094 9.98713 15.7469L11.9871 12.2469C12.1246 12.0094 12.0403 11.7031 11.7996 11.5656ZM13.0434 3.50938C12.9215 2.10625 11.7371 1 10.3028 1C9.7465 1 9.21525 1.16563 8.76525 1.475C8.06213 0.553125 6.97463 0 5.80275 0C3.73713 0 2.05275 1.68125 2.05275 3.75V3.7625C0.855877 4.2625 0.052752 5.43437 0.052752 6.75C0.052752 8.54062 1.51213 10 3.30275 10H12.8028C14.5934 10 16.0528 8.54062 16.0528 6.75C16.0528 5.0375 14.7215 3.63125 13.0434 3.50938ZM12.8028 9H3.30275C2.06213 9 1.05275 7.99062 1.05275 6.75C1.05275 5.74062 1.73713 4.85313 2.71838 4.5875L3.134 4.475L3.0715 3.9375C3.06213 3.875 3.05275 3.8125 3.05275 3.75C3.05275 2.23438 4.28713 1 5.80275 1C6.809 1 7.734 1.55938 8.21525 2.4625L8.5465 3.08125L9.0215 2.56562C9.36213 2.2 9.81525 2 10.3028 2C11.2684 2 12.0528 2.78437 12.0528 3.75C12.0528 3.8 12.0434 3.84687 12.0278 3.96563L11.9496 4.59062L12.684 4.51562C12.7215 4.50938 12.7621 4.50313 12.8028 4.50313C14.0434 4.50313 15.0528 5.5125 15.0528 6.75313C15.0528 7.99375 14.0434 9 12.8028 9Z" fill="black"/>
</g>
<defs>
<clipPath id="clip0_378_11482">
<rect width="16" height="16" fill="white" transform="translate(0.0529785)"/>
</clipPath>
</defs>
</svg>
