<svg width="21" height="16" viewBox="0 0 21 16" fill="none" xmlns="http://www.w3.org/2000/svg">
<g clip-path="url(#clip0_378_11483)">
<path d="M17.2555 9.51128C17.1336 8.10815 15.9524 7.0019 14.5149 7.0019C13.9586 7.0019 13.4274 7.16753 12.9774 7.4769C12.2743 6.55503 11.1868 6.0019 10.0149 6.0019C7.94614 6.0019 6.26489 7.68315 6.26489 9.7519V9.7644C5.06802 10.2644 4.26489 11.4363 4.26489 12.7519C4.26489 14.5425 5.72427 16.0019 7.51489 16.0019H17.0149C18.8055 16.0019 20.2649 14.5425 20.2649 12.7519C20.2649 11.0394 18.9336 9.63315 17.2555 9.51128ZM17.0149 15.0019H7.51489C6.27427 15.0019 5.26489 13.9925 5.26489 12.7519C5.26489 11.7425 5.94927 10.855 6.93052 10.5894L7.34614 10.4769L7.28364 9.9394C7.27427 9.8769 7.26489 9.8144 7.26489 9.7519C7.26489 8.23628 8.49927 7.0019 10.0149 7.0019C11.0211 7.0019 11.9461 7.56128 12.4274 8.4644L12.7586 9.08315L13.2336 8.56753C13.5711 8.2019 14.0274 8.0019 14.5149 8.0019C15.4805 8.0019 16.2649 8.78628 16.2649 9.7519C16.2649 9.8019 16.2555 9.84878 16.2399 9.96753L16.1618 10.5925L16.8961 10.5175C16.9336 10.5113 16.9743 10.505 17.0149 10.505C18.2555 10.505 19.2649 11.5144 19.2649 12.755C19.2649 13.9957 18.2555 15.0019 17.0149 15.0019ZM3.15864 10.0957L3.54927 8.12065C3.58677 7.92378 3.50552 7.72065 3.33677 7.60815L1.66489 6.4894L3.33677 5.37065C3.50552 5.25815 3.58677 5.05503 3.54927 4.85815L3.15864 2.88003L5.13364 3.27065C5.33364 3.31128 5.53364 3.22378 5.64614 3.05815L6.76489 1.38628L7.88364 3.05815C7.99614 3.22378 8.19302 3.31128 8.39614 3.27065L10.3711 2.88003L9.98052 4.85503C9.97114 4.90503 9.97739 4.95503 9.98052 5.00503C9.99302 5.00503 10.0024 5.0019 10.0149 5.0019C10.3305 5.0019 10.6399 5.03628 10.9399 5.09565C10.9461 5.08003 10.9555 5.06753 10.9586 5.04878L11.4961 2.3394C11.5274 2.1769 11.4774 2.00815 11.3586 1.8894C11.2399 1.77065 11.0711 1.71753 10.9086 1.7519L8.52739 2.22378L7.18052 0.211279C6.99302 -0.0668457 6.53677 -0.0668457 6.34927 0.211279L4.99927 2.2269L2.62114 1.75503C2.45552 1.72065 2.28677 1.77378 2.17114 1.89253C2.05239 2.01128 2.00239 2.18003 2.03364 2.34253L2.50552 4.72378L0.486768 6.07065C0.349268 6.1644 0.264893 6.32065 0.264893 6.48628C0.264893 6.6519 0.349268 6.80815 0.486768 6.9019L2.50239 8.2519L2.03052 10.6332C1.99927 10.7957 2.04927 10.9644 2.16802 11.0832C2.26177 11.1769 2.38989 11.23 2.52114 11.23C2.55239 11.23 2.58677 11.2269 2.61802 11.2207L3.64302 11.0175C3.83677 10.5863 4.09927 10.1894 4.42739 9.84253L3.15864 10.0957ZM6.76489 4.68003C7.34302 4.68003 7.85239 4.95815 8.18364 5.38003C8.50239 5.24565 8.83364 5.14253 9.18052 5.08003C8.69302 4.24878 7.79927 3.68003 6.76489 3.68003C5.21802 3.68003 3.95864 4.9394 3.95864 6.48628C3.95864 7.51753 4.52427 8.4144 5.35864 8.9019C5.42114 8.55503 5.52427 8.22378 5.65864 7.90503C5.23364 7.57378 4.95864 7.0644 4.95864 6.48628C4.95864 5.49253 5.76802 4.68003 6.76489 4.68003Z" fill="black"/>
</g>
<defs>
<clipPath id="clip0_378_11483">
<rect width="20" height="16" fill="white" transform="translate(0.264893)"/>
</clipPath>
</defs>
</svg>
