<svg width="21" height="16" viewBox="0 0 21 16" fill="none" xmlns="http://www.w3.org/2000/svg">
<g clip-path="url(#clip0_378_11486)">
<path d="M14.5092 10.0344C14.2905 8.87813 13.2717 8 12.053 8C12.053 6.34688 10.7061 5 9.05298 5H8.8811C8.46548 3.81875 7.33423 3 6.05298 3C4.77173 3 3.64048 3.81875 3.22485 5H3.05298C1.39985 5 0.0529785 6.34688 0.0529785 8C0.0529785 9.65312 1.39985 11 3.05298 11H4.32798C3.84673 11.5344 3.55298 12.2344 3.55298 13C3.55298 14.6531 4.89985 16 6.55298 16H14.053C15.7061 16 17.053 14.6531 17.053 13C17.053 11.5 15.9467 10.2563 14.5092 10.0344ZM3.05298 10C1.94985 10 1.05298 9.10312 1.05298 8C1.05298 6.89687 1.94985 6 3.05298 6H4.01235L4.0936 5.6C4.2811 4.67188 5.1061 4 6.05298 4C6.99985 4 7.82485 4.67188 8.01235 5.6L8.0936 6H9.05298C10.1561 6 11.053 6.89687 11.053 8C11.053 8.08125 11.0311 8.15625 11.0217 8.23125C11.0092 8.2375 10.9936 8.24062 10.978 8.24687C10.4217 7.475 9.5186 7 8.55298 7C6.89985 7 5.55298 8.34688 5.55298 10H3.05298ZM14.053 15H6.55298C5.44985 15 4.55298 14.1031 4.55298 13C4.55298 12.0312 5.24673 11.2063 6.20298 11.0375L6.7186 10.9469L6.6061 10.4375C6.57173 10.2812 6.55298 10.1375 6.55298 10.0031C6.55298 8.9 7.44985 8.00313 8.55298 8.00313C9.32173 8.00313 10.028 8.45625 10.3561 9.15938L10.6249 9.73438L11.1186 9.3375C11.3936 9.11875 11.7155 9.00313 12.0499 9.00313C12.878 9.00313 13.5499 9.675 13.5499 10.5031V11.0031H14.0499C15.153 11.0031 16.0499 11.9 16.0499 13.0031C16.0499 14.1062 15.1561 15 14.053 15ZM19.9842 7.79375C19.8655 7.54062 19.6092 7.37813 19.3311 7.37813H19.2842L19.1936 7.39062C18.9874 7.42812 18.7811 7.45 18.5749 7.45C16.7874 7.45 15.3342 6.00625 15.3342 4.22813C15.3342 3.07188 15.9624 2 16.978 1.42813C17.2467 1.27813 17.3874 0.984375 17.3342 0.68125C17.2842 0.378125 17.053 0.146875 16.7499 0.090625C16.4342 0.028125 16.1092 0 15.7874 0C13.1936 0 11.0436 1.86875 10.5999 4.31875C10.9405 4.4625 11.2561 4.65313 11.5436 4.88438C11.7311 2.7125 13.5499 1 15.7874 1H15.8467C14.8967 1.79375 14.3342 2.975 14.3342 4.22813C14.3342 6.55625 16.2374 8.45 18.5749 8.45H18.6061C17.8717 9.09062 16.9342 9.45 15.9467 9.4875C16.3561 9.7125 16.7186 10.0062 17.0249 10.3531C18.1405 10.0875 19.1467 9.46562 19.8874 8.55937C20.0686 8.34062 20.103 8.04688 19.9842 7.79375Z" fill="black"/>
</g>
<defs>
<clipPath id="clip0_378_11486">
<rect width="20" height="16" fill="white" transform="translate(0.0529785)"/>
</clipPath>
</defs>
</svg>
