<svg width="21" height="16" viewBox="0 0 21 16" fill="none" xmlns="http://www.w3.org/2000/svg">
<g clip-path="url(#clip0_378_11484)">
<path d="M9.63662 13.0675C9.39912 12.9332 9.09287 13.0113 8.95537 13.255L7.81162 15.255C7.67412 15.4957 7.7585 15.7988 7.99912 15.9363C8.07725 15.98 8.16162 16.0019 8.246 16.0019C8.41787 16.0019 8.58662 15.9113 8.68037 15.7488L9.82412 13.7488C9.96162 13.5082 9.87725 13.205 9.63662 13.0675ZM6.31787 4.3769C7.14287 4.3769 7.81787 5.0019 7.91475 5.8019C8.06475 5.6894 8.221 5.58628 8.38662 5.49253C8.4335 5.23003 8.5085 4.9769 8.59912 4.73315C8.15225 3.93003 7.30225 3.3769 6.31787 3.3769C4.87412 3.3769 3.70225 4.5519 3.70225 5.99565C3.70225 7.4394 4.87412 8.6144 6.31787 8.6144C6.32725 8.6144 6.33662 8.61128 6.346 8.61128C6.38037 8.25503 6.46162 7.91128 6.58662 7.58628C6.49912 7.6019 6.41162 7.6144 6.321 7.6144C5.43037 7.6144 4.70537 6.8894 4.70537 5.99878C4.70225 5.10503 5.42725 4.3769 6.31787 4.3769ZM5.32725 9.11753C5.21475 8.9519 5.01787 8.8644 4.81475 8.90503L3.06475 9.2519L3.41162 7.5019C3.44912 7.3019 3.36787 7.1019 3.19912 6.9894L1.71787 5.99565L3.19912 5.0019C3.36787 4.8894 3.44912 4.68628 3.41162 4.4894L3.06475 2.7394L4.81475 3.08628C5.01787 3.1269 5.21475 3.04253 5.32725 2.87378L6.31787 1.3894L7.31162 2.87378C7.42412 3.0394 7.62412 3.1269 7.82412 3.08628L10.3054 2.59565C10.5772 2.54253 10.7522 2.28003 10.6991 2.00815C10.646 1.73628 10.3772 1.55503 10.1116 1.6144L7.9585 2.0394L6.7335 0.211279C6.54912 -0.0668457 6.08975 -0.0668457 5.90225 0.211279L4.68037 2.0394L2.52412 1.61128C2.3585 1.5769 2.18975 1.63003 2.07412 1.74878C1.95537 1.86753 1.90537 2.03628 1.93662 2.2019L2.36475 4.35815L0.539746 5.58003C0.402246 5.67378 0.317871 5.8269 0.317871 5.99565C0.317871 6.16128 0.402246 6.31753 0.539746 6.41128L2.36475 7.63315L1.93662 9.7894C1.90537 9.95503 1.95537 10.1238 2.07412 10.2425C2.19287 10.3613 2.35537 10.4144 2.52412 10.38L4.67725 9.9519L5.89912 11.78C5.996 11.9238 6.15537 12.0019 6.31475 12.0019C6.41162 12.0019 6.5085 11.9738 6.59287 11.9175C6.821 11.7644 6.8835 11.4519 6.73037 11.2238L5.32725 9.11753ZM15.6366 13.0675C15.3991 12.9332 15.0929 13.0113 14.9554 13.255L13.8116 15.255C13.6741 15.4957 13.7585 15.7988 13.9991 15.9363C14.0772 15.98 14.1616 16.0019 14.246 16.0019C14.4179 16.0019 14.5866 15.9113 14.6804 15.7488L15.8241 13.7488C15.9616 13.5082 15.8772 13.205 15.6366 13.0675ZM18.296 6.16753C18.1304 4.94565 17.0835 4.0019 15.8179 4.0019C15.5491 4.0019 15.2866 4.04565 15.0304 4.13628C14.4147 3.42065 13.5241 3.0019 12.5679 3.0019C10.8022 3.0019 9.3585 4.41753 9.31787 6.1769C8.13662 6.59253 7.31787 7.71753 7.31787 9.0019C7.31787 10.655 8.66475 12.0019 10.3179 12.0019H17.3179C18.971 12.0019 20.3179 10.655 20.3179 9.0019C20.3179 7.71128 19.4866 6.5769 18.296 6.16753ZM17.3179 11.0019H10.3179C9.21475 11.0019 8.31787 10.105 8.31787 9.0019C8.31787 8.04565 8.99912 7.22065 9.94287 7.0394L10.396 6.9519L10.3335 6.3894C10.3272 6.34253 10.321 6.29878 10.321 6.2519C10.321 5.01128 11.3304 4.0019 12.571 4.0019C13.3304 4.0019 14.0335 4.38315 14.4522 5.0269L14.7054 5.4144L15.1116 5.19253C16.1335 4.63628 17.321 5.44878 17.3241 6.45503L17.3179 6.96128L17.7179 7.04253C18.6491 7.23003 19.321 8.0519 19.321 9.0019C19.3179 10.105 18.421 11.0019 17.3179 11.0019ZM18.6366 13.0675C18.3991 12.9332 18.0929 13.0113 17.9554 13.255L16.8116 15.255C16.6741 15.4957 16.7585 15.7988 16.9991 15.9363C17.0772 15.98 17.1616 16.0019 17.246 16.0019C17.4179 16.0019 17.5866 15.9113 17.6804 15.7488L18.8241 13.7488C18.9616 13.5082 18.8772 13.205 18.6366 13.0675ZM12.6366 13.0675C12.3991 12.9332 12.0929 13.0113 11.9554 13.255L10.8116 15.255C10.6741 15.4957 10.7585 15.7988 10.9991 15.9363C11.0772 15.98 11.1616 16.0019 11.246 16.0019C11.4179 16.0019 11.5866 15.9113 11.6804 15.7488L12.8241 13.7488C12.9616 13.5082 12.8772 13.205 12.6366 13.0675Z" fill="black"/>
</g>
<defs>
<clipPath id="clip0_378_11484">
<rect width="20" height="16" fill="white" transform="translate(0.317871)"/>
</clipPath>
</defs>
</svg>
