<svg width="20" height="16" viewBox="0 0 20 16" fill="none" xmlns="http://www.w3.org/2000/svg">
<path d="M16.9906 9.50937C16.8687 8.10625 15.6875 7 14.25 7C14.0281 7 13.8125 7.03437 13.6031 7.08437C13.85 6.60625 14 6.07188 14 5.5C14 3.56875 12.4312 2 10.5 2C10.1719 2 9.84688 2.04688 9.53125 2.14062C8.84375 0.84375 7.48125 0 6 0C4.06875 0 2.44375 1.37188 2.09063 3.24375C0.859375 3.6125 0 4.74375 0 6.05625C0 7.68125 1.32187 9 2.94375 9H6.075C6.025 9.24375 6 9.49375 6 9.75V9.7625C4.80312 10.2625 4 11.4344 4 12.75C4 14.5406 5.45937 16 7.25 16H16.75C18.5406 16 20 14.5406 20 12.75C20 11.0375 18.6688 9.63125 16.9906 9.50937ZM2.94375 8C1.87187 8 1 7.12813 1 6.05625C1 5.10938 1.68125 4.30625 2.61875 4.14687L2.99375 4.08437L3.03125 3.70625C3.1875 2.1625 4.4625 1 6 1C7.23438 1 8.35938 1.78125 8.8 2.94688L8.9875 3.44688L9.47188 3.22813C9.80313 3.07812 10.15 3 10.5 3C11.8781 3 13 4.12187 13 5.5C13 6.12187 12.7687 6.69062 12.3844 7.13125C11.6906 6.42812 10.7594 6 9.75 6C8.31875 6 7.08437 6.81563 6.45312 8H2.94375ZM16.75 15H7.25C6.00938 15 5 13.9906 5 12.75C5 11.7406 5.68438 10.8531 6.66563 10.5875L7.08125 10.475L7.01875 9.9375C7.00938 9.875 7 9.8125 7 9.75C7 8.23438 8.23438 7 9.75 7C10.7563 7 11.6813 7.55937 12.1625 8.4625L12.4937 9.08125L12.9688 8.56563C13.3062 8.2 13.7625 8 14.25 8C15.2156 8 16 8.78438 16 9.75C16 9.8 15.9906 9.84688 15.975 9.96562L15.8969 10.5906L16.6313 10.5156C16.6688 10.5094 16.7094 10.5031 16.75 10.5031C17.9906 10.5031 19 11.5125 19 12.7531C19 13.9938 17.9906 15 16.75 15Z" fill="black"/>
</svg>
