<svg width="20" height="16" viewBox="0 0 20 16" fill="none" xmlns="http://www.w3.org/2000/svg">
<g clip-path="url(#clip0_378_11487)">
<path d="M20 8.07378C20 6.46128 18.7438 5.1519 17.2 5.1519H17.1844C16.6656 3.88003 15.4563 2.9894 14.0781 2.9894C12.6281 2.9894 11.3844 3.93003 10.9062 5.30815C10.1156 5.58315 9.49375 6.21753 9.19687 7.02378C7.6875 7.18003 6.5 8.44565 6.5 9.99565C6.5 10.0519 6.50312 10.1113 6.50625 10.1707C5.31875 10.5832 4.5 11.7082 4.5 12.9988C4.5 14.655 5.84688 16.0019 7.5 16.0019H15C16.6531 16.0019 18 14.655 18 12.9988C18 12.2269 17.7063 11.5269 17.225 10.9957C18.7563 10.98 20 9.6769 20 8.07378ZM15 15.0019H7.5C6.39687 15.0019 5.5 14.105 5.5 12.9988C5.5 12.03 6.19375 11.2019 7.15 11.0332L7.66563 10.9425L7.55312 10.4332C7.51875 10.2769 7.5 10.1332 7.5 9.99878C7.5 8.89565 8.39688 7.99565 9.5 7.99565C10.2688 7.99565 10.975 8.44878 11.3062 9.1519L11.575 9.7269L12.0688 9.33003C12.3438 9.11128 12.6656 8.99565 13 8.99565C13.8281 8.99565 14.5 9.66753 14.5 10.4957V10.9957H15C16.1031 10.9957 17 11.8925 17 12.9988C17 14.105 16.1031 15.0019 15 15.0019ZM17.2 9.99565H15.4469C15.2125 8.85503 14.2063 7.99253 13 7.99253C12.625 7.99253 12.2594 8.0769 11.925 8.2394C11.5188 7.6769 10.925 7.2769 10.2625 7.09878C10.5625 6.55815 11.0969 6.1894 11.7219 6.15815C11.8969 4.93003 12.8781 3.9894 14.075 3.9894C15.3344 3.9894 16.3531 5.03003 16.4469 6.34878C16.6781 6.23315 16.925 6.1519 17.1969 6.1519C18.1906 6.1519 18.9969 7.01128 18.9969 8.07378C19 9.13628 18.1938 9.99565 17.2 9.99565ZM5.17188 9.75503C5.10625 9.72378 5.0375 9.7019 4.96562 9.7019C4.93437 9.7019 4.9 9.70503 4.86875 9.71128L2.89375 10.1019L3.28437 8.1269C3.32187 7.93003 3.24063 7.7269 3.07188 7.61128L1.4 6.49253L3.07188 5.37378C3.24063 5.26128 3.32187 5.05815 3.28437 4.85815L2.89375 2.88315L4.86875 3.27378C5.07188 3.3144 5.26875 3.2269 5.38125 3.06128L6.5 1.3894L7.61875 3.0644C7.73125 3.23003 7.92813 3.31753 8.13125 3.2769L10.1062 2.88628L9.72812 4.79878C9.85938 4.71128 9.99062 4.6269 10.1344 4.55503C10.3625 4.0644 10.6813 3.63628 11.05 3.26753L11.2312 2.34565C11.2625 2.18315 11.2125 2.0144 11.0938 1.89565C10.975 1.7769 10.8125 1.72378 10.6438 1.75815L8.2625 2.23003L6.91563 0.211279C6.72813 -0.0668457 6.27187 -0.0668457 6.08437 0.211279L4.73438 2.23003L2.35313 1.75503C2.1875 1.72065 2.02188 1.7769 1.90313 1.89253C1.78438 2.01128 1.73438 2.18003 1.76562 2.34253L2.2375 4.7269L0.221875 6.0769C0.084375 6.17065 0 6.3269 0 6.49253C0 6.65815 0.084375 6.8144 0.221875 6.90815L2.2375 8.25815L1.76562 10.6394C1.73438 10.805 1.78438 10.9738 1.90313 11.0894C2.02188 11.205 2.19063 11.2582 2.35313 11.2269L4.1125 10.88C4.3875 10.4425 4.74687 10.0582 5.17188 9.75503ZM6.5 4.68315C7.4 4.68315 8.14062 5.34565 8.27812 6.20815C8.35312 6.18315 8.42813 6.1519 8.50625 6.13315C8.6625 5.8519 8.85625 5.59878 9.06875 5.36753C8.63438 4.3769 7.64687 3.68315 6.5 3.68315C4.95312 3.68315 3.69375 4.94253 3.69375 6.49253C3.69375 7.7269 4.49687 8.7644 5.60313 9.14253C5.675 8.81128 5.7875 8.49878 5.93437 8.2019C5.21562 7.9644 4.69063 7.29253 4.69063 6.49253C4.69375 5.49565 5.50313 4.68315 6.5 4.68315Z" fill="black"/>
</g>
<defs>
<clipPath id="clip0_378_11487">
<rect width="20" height="16" fill="white"/>
</clipPath>
</defs>
</svg>
