<svg width="16" height="16" viewBox="0 0 16 16" fill="none" xmlns="http://www.w3.org/2000/svg">
<g clip-path="url(#clip0_379_11493)">
<path d="M14.0303 11.4255C10.881 12.0253 7.97326 9.61766 7.97326 6.41934C7.97326 4.57894 8.95954 2.89334 10.5537 1.98616C11.3609 1.52678 11.1578 0.303062 10.2407 0.133656C9.7588 0.0448156 9.26977 7.84757e-05 8.77972 0C4.36304 0 0.779724 3.57956 0.779724 8C0.779724 12.4167 4.35932 16 8.77972 16C11.2463 16 13.5009 14.8774 14.9938 13.038C15.5827 12.3124 14.9405 11.2521 14.0303 11.4255V11.4255ZM8.77972 15C4.91372 15 1.77972 11.866 1.77972 8C1.77972 4.134 4.91372 1 8.77972 1C9.21672 1 9.64426 1.04044 10.0591 1.11703C8.21622 2.16578 6.97326 4.14731 6.97326 6.41934C6.97326 10.2508 10.4612 13.1232 14.2173 12.4078C12.9339 13.9892 10.975 15 8.77972 15Z" fill="black"/>
</g>
<defs>
<clipPath id="clip0_379_11493">
<rect width="16" height="16" fill="white"/>
</clipPath>
</defs>
</svg>
