<svg width="17" height="16" viewBox="0 0 17 16" fill="none" xmlns="http://www.w3.org/2000/svg">
<g clip-path="url(#clip0_378_11488)">
<path d="M8.41724 4.49253C6.48599 4.49253 4.91724 6.0644 4.91724 7.99565C4.91724 9.9269 6.48599 11.4988 8.41724 11.4988C10.3485 11.4988 11.9172 9.9269 11.9172 7.99565C11.9172 6.0644 10.3485 4.49253 8.41724 4.49253ZM8.41724 10.4988C7.03911 10.4988 5.91724 9.3769 5.91724 7.99565C5.91724 6.6144 7.03911 5.49253 8.41724 5.49253C9.79536 5.49253 10.9172 6.6144 10.9172 7.99565C10.9172 9.3769 9.79536 10.4988 8.41724 10.4988ZM16.4172 7.99565C16.4172 7.83003 16.3329 7.67378 16.1954 7.58003L13.6047 5.84565L14.211 2.78628C14.2422 2.62378 14.1922 2.4519 14.0735 2.33628C13.9547 2.21753 13.7891 2.1644 13.6235 2.19878L10.5672 2.80503L8.83286 0.211279C8.64536 -0.0668457 8.18911 -0.0668457 8.00161 0.211279L6.26724 2.80503L3.21099 2.19565C3.04536 2.16128 2.87974 2.2144 2.76099 2.33315C2.64224 2.4519 2.59224 2.62065 2.62349 2.78315L3.22974 5.84565L0.639111 7.58003C0.501611 7.67378 0.417236 7.83003 0.417236 7.99565C0.417236 8.16128 0.501611 8.31753 0.639111 8.41128L3.22974 10.1457L2.62349 13.205C2.59224 13.3675 2.64224 13.5394 2.76099 13.655C2.87974 13.7738 3.04536 13.8269 3.21099 13.7925L6.26724 13.1863L8.00161 15.78C8.09536 15.9207 8.25161 16.0019 8.41724 16.0019C8.58286 16.0019 8.73911 15.9175 8.83286 15.78L10.5672 13.1863L13.6235 13.7925C13.7922 13.83 13.9579 13.7738 14.0735 13.655C14.1922 13.5363 14.2422 13.3675 14.211 13.205L13.6047 10.1457L16.1954 8.41128C16.3329 8.31753 16.4172 8.16128 16.4172 7.99565ZM12.7704 9.49878C12.6016 9.61128 12.5204 9.8144 12.5579 10.0113L13.0829 12.6644L10.4329 12.1394C10.2266 12.0957 10.0329 12.1832 9.92036 12.3519L8.41724 14.6019L6.91411 12.355C6.82036 12.2144 6.66411 12.1332 6.49849 12.1332C6.46724 12.1332 6.43286 12.1363 6.40161 12.1425L3.75161 12.6675L4.27661 10.0144C4.31411 9.81753 4.23286 9.6144 4.06411 9.5019L1.81724 7.99878L4.06411 6.49253C4.23286 6.38003 4.31411 6.1769 4.27661 5.98003L3.75161 3.3269L6.40161 3.8519C6.60474 3.89253 6.80161 3.80815 6.91411 3.6394L8.41724 1.3894L9.92036 3.6394C10.0329 3.80815 10.2297 3.89253 10.4329 3.8519L13.0829 3.3269L12.5579 5.98003C12.5204 6.1769 12.6016 6.38003 12.7704 6.49253L15.0172 7.99878L12.7704 9.49878Z" fill="black"/>
</g>
<defs>
<clipPath id="clip0_378_11488">
<rect width="16" height="16" fill="white" transform="translate(0.417236)"/>
</clipPath>
</defs>
</svg>
