<svg width="19" height="16" viewBox="0 0 19 16" fill="none" xmlns="http://www.w3.org/2000/svg">
<g clip-path="url(#clip0_378_11489)">
<path d="M3.88779 14H5.09092L3.71592 11.9375L6.40342 11.4C6.60029 11.3594 6.75654 11.2063 6.79717 11.0063L7.33467 8.31875L9.61592 9.84062C9.78467 9.95312 10.0034 9.95312 10.1722 9.84062L12.4534 8.31875L12.9909 11.0063C13.0284 11.2031 13.1847 11.3594 13.3847 11.4L16.0722 11.9375L14.6972 14H15.9003L17.3222 11.8719C17.4159 11.7344 17.4315 11.5562 17.369 11.4031C17.3065 11.25 17.169 11.1375 17.0034 11.1031L13.9097 10.4844L13.2909 7.39062C13.2597 7.22813 13.1472 7.09063 12.9909 7.025C12.8347 6.95937 12.6597 6.97813 12.5222 7.07188L9.89717 8.82187L7.27217 7.07188C7.13467 6.98125 6.95654 6.9625 6.80342 7.025C6.65029 7.0875 6.53779 7.225 6.50342 7.39062L5.88467 10.4844L2.79092 11.1031C2.62842 11.1344 2.49092 11.2469 2.42529 11.4031C2.35967 11.5594 2.37842 11.7344 2.47217 11.8719L3.88779 14ZM7.07217 3.67812C7.16904 3.775 7.32842 3.775 7.42529 3.67812L9.39404 1.70938V6.75C9.39404 6.8875 9.50654 7 9.64404 7H10.144C10.2815 7 10.394 6.8875 10.394 6.75V1.70625L12.3628 3.675C12.4597 3.77187 12.619 3.77187 12.7159 3.675L13.069 3.32188C13.1659 3.225 13.1659 3.06562 13.069 2.96875L10.2472 0.146875C10.1503 0.05 10.0222 0 9.89404 0C9.76592 0 9.63779 0.05 9.54092 0.146875L6.71592 2.96875C6.61904 3.06562 6.61904 3.225 6.71592 3.32188L7.07217 3.67812ZM18.644 15H1.14404C1.00654 15 0.894043 15.1125 0.894043 15.25V15.75C0.894043 15.8875 1.00654 16 1.14404 16H18.644C18.7815 16 18.894 15.8875 18.894 15.75V15.25C18.894 15.1125 18.7815 15 18.644 15ZM9.88779 11C8.12842 11 6.68467 12.3094 6.43779 14H7.43779C7.66904 12.8594 8.67842 12 9.88779 12C11.0972 12 12.1034 12.8594 12.3378 14H13.3378C13.094 12.3094 11.6472 11 9.88779 11Z" fill="black"/>
</g>
<defs>
<clipPath id="clip0_378_11489">
<rect width="18" height="16" fill="white" transform="translate(0.894043)"/>
</clipPath>
</defs>
</svg>
