<svg width="19" height="16" viewBox="0 0 19 16" fill="none" xmlns="http://www.w3.org/2000/svg">
<g clip-path="url(#clip0_378_11490)">
<path d="M9.5939 6.85313C9.69077 6.95 9.8189 7 9.94702 7C10.0751 7 10.2033 6.95 10.3001 6.85313L13.122 4.03125C13.2189 3.93438 13.2189 3.775 13.122 3.67812L12.7689 3.325C12.672 3.22813 12.5126 3.22813 12.4158 3.325L10.447 5.29375V0.25C10.447 0.1125 10.3345 0 10.197 0H9.69702C9.55952 0 9.44702 0.1125 9.44702 0.25V5.29375L7.47827 3.325C7.3814 3.22813 7.22202 3.22813 7.12515 3.325L6.77202 3.67812C6.67515 3.775 6.67515 3.93438 6.77202 4.03125L9.5939 6.85313ZM3.94077 14H5.1439L3.7689 11.9375L6.4564 11.4C6.65327 11.3594 6.80952 11.2063 6.85015 11.0063L7.38765 8.31875L9.6689 9.84062C9.83765 9.95312 10.0564 9.95312 10.2251 9.84062L12.5064 8.31875L13.0439 11.0063C13.0814 11.2031 13.2376 11.3594 13.4376 11.4L16.1251 11.9375L14.7501 14H15.9533L17.3751 11.8719C17.4689 11.7344 17.4845 11.5562 17.422 11.4031C17.3595 11.25 17.222 11.1375 17.0564 11.1031L13.9626 10.4844L13.3439 7.39062C13.3126 7.22813 13.2001 7.09063 13.0439 7.025C12.8876 6.95937 12.7126 6.97813 12.5751 7.07188L9.95015 8.82187L7.32515 7.07188C7.18765 6.98125 7.00952 6.9625 6.8564 7.025C6.70327 7.0875 6.59077 7.225 6.5564 7.39062L5.93765 10.4844L2.8439 11.1031C2.6814 11.1344 2.5439 11.2469 2.47827 11.4031C2.41265 11.5594 2.4314 11.7344 2.52515 11.8719L3.94077 14ZM9.94077 11C8.1814 11 6.73765 12.3094 6.49077 14H7.49077C7.72202 12.8594 8.7314 12 9.94077 12C11.1501 12 12.1564 12.8594 12.3908 14H13.3908C13.147 12.3094 11.7001 11 9.94077 11ZM18.697 15H1.19702C1.05952 15 0.947021 15.1125 0.947021 15.25V15.75C0.947021 15.8875 1.05952 16 1.19702 16H18.697C18.8345 16 18.947 15.8875 18.947 15.75V15.25C18.947 15.1125 18.8345 15 18.697 15Z" fill="black"/>
</g>
<defs>
<clipPath id="clip0_378_11490">
<rect width="18" height="16" fill="white" transform="translate(0.947021)"/>
</clipPath>
</defs>
</svg>
