<svg width="10" height="10" viewBox="0 0 10 10" fill="none" xmlns="http://www.w3.org/2000/svg">
<path d="M6.06148 5L9.26648 1.795L9.92742 1.13406C10.0249 1.03656 10.0249 0.878125 9.92742 0.780625L9.22023 0.0734376C9.12273 -0.0240624 8.96429 -0.0240624 8.86679 0.0734376L5.00085 3.93937L1.13492 0.073125C1.03742 -0.024375 0.878979 -0.024375 0.781479 0.073125L0.0739795 0.780313C-0.0235205 0.877813 -0.0235205 1.03625 0.0739795 1.13375L3.94023 5L0.0739795 8.86594C-0.0235205 8.96344 -0.0235205 9.12187 0.0739795 9.21937L0.781167 9.92656C0.878667 10.0241 1.0371 10.0241 1.1346 9.92656L5.00085 6.06063L8.20585 9.26562L8.86679 9.92656C8.96429 10.0241 9.12273 10.0241 9.22023 9.92656L9.92742 9.21937C10.0249 9.12187 10.0249 8.96344 9.92742 8.86594L6.06148 5Z" fill="black"/>
</svg>
