<svg width="16" height="16" viewBox="0 0 16 16" fill="none" xmlns="http://www.w3.org/2000/svg">
<path d="M7.75085 0C3.4696 0 0.000854492 3.46875 0.000854492 7.75C0.000854492 12.0312 3.4696 15.5 7.75085 15.5C12.0321 15.5 15.5009 12.0312 15.5009 7.75C15.5009 3.46875 12.0321 0 7.75085 0ZM12.5227 12.5219C11.904 13.1406 11.179 13.6281 10.3759 13.9688C9.5446 14.3219 8.66023 14.5 7.74773 14.5C6.83523 14.5 5.95085 14.3219 5.1196 13.9688C4.31648 13.6281 3.5946 13.1406 2.97273 12.5219C2.35398 11.9031 1.86648 11.1781 1.52585 10.375C1.17273 9.54375 0.994604 8.65938 0.994604 7.74687C0.994604 6.83437 1.17273 5.95 1.52585 5.11875C1.86648 4.31563 2.35398 3.59375 2.97273 2.97187C3.59148 2.35313 4.31648 1.86562 5.1196 1.525C5.95085 1.17188 6.83523 0.99375 7.74773 0.99375C8.66023 0.99375 9.5446 1.17188 10.3759 1.525C11.179 1.86562 11.9009 2.35313 12.5227 2.97187C13.1415 3.59062 13.629 4.31563 13.9696 5.11875C14.3227 5.95 14.5009 6.83437 14.5009 7.74687C14.5009 8.65938 14.3227 9.54375 13.9696 10.375C13.6321 11.1812 13.1446 11.9031 12.5227 12.5219ZM10.2509 6.75C10.804 6.75 11.2509 6.30312 11.2509 5.75C11.2509 5.19688 10.804 4.75 10.2509 4.75C9.69773 4.75 9.25085 5.19688 9.25085 5.75C9.25085 6.30312 9.69773 6.75 10.2509 6.75ZM5.25085 6.75C5.80398 6.75 6.25085 6.30312 6.25085 5.75C6.25085 5.19688 5.80398 4.75 5.25085 4.75C4.69773 4.75 4.25085 5.19688 4.25085 5.75C4.25085 6.30312 4.69773 6.75 5.25085 6.75ZM11.9696 8.75H3.5321C3.2321 8.75 2.99773 9.0125 3.03523 9.3125C3.31023 11.5312 5.20398 13.25 7.50085 13.25H8.00085C10.2946 13.25 12.1884 11.5312 12.4665 9.3125C12.504 9.0125 12.2696 8.75 11.9696 8.75ZM8.00085 12.25H7.50085C5.9321 12.25 4.57898 11.2094 4.1446 9.75H11.3571C10.9227 11.2094 9.5696 12.25 8.00085 12.25Z" fill="black"/>
</svg>
