<svg width="14" height="16" viewBox="0 0 14 16" fill="none" xmlns="http://www.w3.org/2000/svg">
<path d="M0 5.625V1.75C0 1.33437 0.334375 1 0.75 1H4.625C4.83125 1 5 1.16875 5 1.375V1.625C5 1.83125 4.83125 2 4.625 2H1V5.625C1 5.83125 0.83125 6 0.625 6H0.375C0.16875 6 0 5.83125 0 5.625ZM9.375 1H13.25C13.6656 1 14 1.33437 14 1.75V5.625C14 5.83125 13.8313 6 13.625 6H13.375C13.1687 6 13 5.83125 13 5.625V2H9.375C9.16875 2 9 1.83125 9 1.625V1.375C9 1.16875 9.16875 1 9.375 1ZM14 10.375V14.25C14 14.6656 13.6656 15 13.25 15H9.375C9.16875 15 9 14.8313 9 14.625V14.375C9 14.1687 9.16875 14 9.375 14H13V10.375C13 10.1687 13.1687 10 13.375 10H13.625C13.8313 10 14 10.1687 14 10.375ZM4.625 15H0.75C0.334375 15 0 14.6656 0 14.25V10.375C0 10.1687 0.16875 10 0.375 10H0.625C0.83125 10 1 10.1687 1 10.375V14H4.625C4.83125 14 5 14.1687 5 14.375V14.625C5 14.8313 4.83125 15 4.625 15Z" fill="black"/>
</svg>
