<svg width="16" height="16" viewBox="0 0 16 16" fill="none" xmlns="http://www.w3.org/2000/svg">
<g clip-path="url(#clip0_34_1294)">
<path d="M7.75085 0.25C3.4696 0.25 0.000854492 3.71875 0.000854492 8C0.000854492 12.2812 3.4696 15.75 7.75085 15.75C12.0321 15.75 15.5009 12.2812 15.5009 8C15.5009 3.71875 12.0321 0.25 7.75085 0.25ZM13.7884 5H11.2102C10.929 3.6125 10.4571 2.43125 9.86023 1.59063C11.579 2.15938 12.9915 3.4 13.7884 5ZM10.5009 8C10.5009 8.71562 10.4509 9.38125 10.3665 10H5.13523C5.05085 9.38125 5.00085 8.71562 5.00085 8C5.00085 7.28438 5.05085 6.61875 5.13523 6H10.3665C10.4509 6.61875 10.5009 7.28438 10.5009 8ZM7.75085 1.25C8.59148 1.25 9.6696 2.62812 10.1915 5H5.31023C5.8321 2.62812 6.91023 1.25 7.75085 1.25ZM5.64148 1.59063C5.04773 2.42812 4.57273 3.60938 4.29148 5H1.71335C2.51023 3.4 3.92273 2.15938 5.64148 1.59063ZM1.00085 8C1.00085 7.30312 1.1071 6.63125 1.30398 6H4.1321C4.05085 6.64062 4.00085 7.30625 4.00085 8C4.00085 8.69375 4.04773 9.35938 4.1321 10H1.30398C1.1071 9.36875 1.00085 8.69687 1.00085 8ZM1.71335 11H4.29148C4.57273 12.3875 5.0446 13.5688 5.64148 14.4094C3.92273 13.8406 2.51023 12.6 1.71335 11ZM7.75085 14.75C6.91023 14.75 5.8321 13.3719 5.31023 11H10.1915C9.6696 13.3719 8.59148 14.75 7.75085 14.75ZM9.86023 14.4094C10.454 13.5719 10.929 12.3906 11.2102 11H13.7884C12.9915 12.6 11.579 13.8406 9.86023 14.4094ZM11.3696 10C11.4509 9.35938 11.5009 8.69375 11.5009 8C11.5009 7.30625 11.454 6.64062 11.3696 6H14.1977C14.3946 6.63125 14.5009 7.30312 14.5009 8C14.5009 8.69687 14.3946 9.36875 14.1977 10H11.3696Z" fill="black"/>
</g>
<defs>
<clipPath id="clip0_34_1294">
<rect width="15.5" height="16" fill="white" transform="translate(0.000854492)"/>
</clipPath>
</defs>
</svg>
