<svg width="25" height="29" viewBox="0 0 25 29" fill="none" xmlns="http://www.w3.org/2000/svg">
<path d="M23.6607 5.35718H19.1964C18.4587 5.35718 17.8571 5.95818 17.8571 6.69646V11.1607C17.8571 11.899 18.4587 12.5 19.1964 12.5H23.6607C24.3984 12.5 25 11.899 25 11.1607V6.69646C25 5.95818 24.3984 5.35718 23.6607 5.35718ZM14.7321 5.35718H10.2679C9.53013 5.35718 8.92857 5.95818 8.92857 6.69646V11.1607C8.92857 11.899 9.53013 12.5 10.2679 12.5H14.7321C15.4699 12.5 16.0714 11.899 16.0714 11.1607V6.69646C16.0714 5.95818 15.4699 5.35718 14.7321 5.35718ZM14.2857 10.7143H10.7143V7.14289H14.2857V10.7143ZM5.80357 5.35718H1.33929C0.601562 5.35718 0 5.95818 0 6.69646V11.1607C0 11.899 0.601562 12.5 1.33929 12.5H5.80357C6.54129 12.5 7.14286 11.899 7.14286 11.1607V6.69646C7.14286 5.95818 6.54129 5.35718 5.80357 5.35718ZM23.6607 16.0715H19.1964C18.4587 16.0715 17.8571 16.6725 17.8571 17.4107V21.875C17.8571 22.6133 18.4587 23.2143 19.1964 23.2143H23.6607C24.3984 23.2143 25 22.6133 25 21.875V17.4107C25 16.6725 24.3984 16.0715 23.6607 16.0715ZM14.7321 16.0715H10.2679C9.53013 16.0715 8.92857 16.6725 8.92857 17.4107V21.875C8.92857 22.6133 9.53013 23.2143 10.2679 23.2143H14.7321C15.4699 23.2143 16.0714 22.6133 16.0714 21.875V17.4107C16.0714 16.6725 15.4699 16.0715 14.7321 16.0715ZM14.2857 21.4286H10.7143V17.8572H14.2857V21.4286ZM5.80357 16.0715H1.33929C0.601562 16.0715 0 16.6725 0 17.4107V21.875C0 22.6133 0.601562 23.2143 1.33929 23.2143H5.80357C6.54129 23.2143 7.14286 22.6133 7.14286 21.875V17.4107C7.14286 16.6725 6.54129 16.0715 5.80357 16.0715ZM5.35714 21.4286H1.78571V17.8572H5.35714V21.4286Z" fill="black"/>
<path d="M23.6607 5.35718H19.1964C18.4587 5.35718 17.8571 5.95818 17.8571 6.69646V11.1607C17.8571 11.899 18.4587 12.5 19.1964 12.5H23.6607C24.3984 12.5 25 11.899 25 11.1607V6.69646C25 5.95818 24.3984 5.35718 23.6607 5.35718ZM14.7321 5.35718H10.2679C9.53013 5.35718 8.92857 5.95818 8.92857 6.69646V11.1607C8.92857 11.899 9.53013 12.5 10.2679 12.5H14.7321C15.4699 12.5 16.0714 11.899 16.0714 11.1607V6.69646C16.0714 5.95818 15.4699 5.35718 14.7321 5.35718ZM14.2857 10.7143H10.7143V7.14289H14.2857V10.7143ZM5.80357 5.35718H1.33929C0.601562 5.35718 0 5.95818 0 6.69646V11.1607C0 11.899 0.601562 12.5 1.33929 12.5H5.80357C6.54129 12.5 7.14286 11.899 7.14286 11.1607V6.69646C7.14286 5.95818 6.54129 5.35718 5.80357 5.35718ZM23.6607 16.0715H19.1964C18.4587 16.0715 17.8571 16.6725 17.8571 17.4107V21.875C17.8571 22.6133 18.4587 23.2143 19.1964 23.2143H23.6607C24.3984 23.2143 25 22.6133 25 21.875V17.4107C25 16.6725 24.3984 16.0715 23.6607 16.0715ZM14.7321 16.0715H10.2679C9.53013 16.0715 8.92857 16.6725 8.92857 17.4107V21.875C8.92857 22.6133 9.53013 23.2143 10.2679 23.2143H14.7321C15.4699 23.2143 16.0714 22.6133 16.0714 21.875V17.4107C16.0714 16.6725 15.4699 16.0715 14.7321 16.0715ZM14.2857 21.4286H10.7143V17.8572H14.2857V21.4286ZM5.80357 16.0715H1.33929C0.601562 16.0715 0 16.6725 0 17.4107V21.875C0 22.6133 0.601562 23.2143 1.33929 23.2143H5.80357C6.54129 23.2143 7.14286 22.6133 7.14286 21.875V17.4107C7.14286 16.6725 6.54129 16.0715 5.80357 16.0715ZM5.35714 21.4286H1.78571V17.8572H5.35714V21.4286Z" stroke="black"/>
</svg>
