<svg width="24" height="24" viewBox="0 0 24 24" fill="none" xmlns="http://www.w3.org/2000/svg">
<path d="M10.0308 19.062C12.0743 19.062 13.9563 18.3816 15.4684 17.2404C15.5065 17.3018 15.5508 17.3588 15.6003 17.4105L15.6002 17.4106L15.6081 17.4185L20.8991 22.7095C21.2871 23.0975 21.9154 23.0975 22.3035 22.7095L22.7095 22.3034C23.0975 21.9154 23.0975 21.2871 22.7095 20.8991L17.4185 15.608C17.3635 15.5531 17.3035 15.5056 17.2396 15.466C18.3824 13.9541 19.062 12.0731 19.062 10.0307C19.062 5.0419 15.0196 0.999489 10.0308 0.999489C5.04192 0.999489 0.999512 5.0419 0.999512 10.0307C0.999512 15.0196 5.04192 19.062 10.0308 19.062ZM10.0308 16.7495C6.31608 16.7495 3.31201 13.7454 3.31201 10.0307C3.31201 6.31606 6.31608 3.31199 10.0308 3.31199C13.7454 3.31199 16.7495 6.31606 16.7495 10.0307C16.7495 13.7454 13.7454 16.7495 10.0308 16.7495Z" fill="black" stroke="black"/>
</svg>
