<svg width="16" height="16" viewBox="0 0 16 16" fill="none" xmlns="http://www.w3.org/2000/svg">
<path d="M15.375 0.25H15.0625C14.8554 0.25 14.6875 0.417906 14.6875 0.625V4.08209C13.3415 1.78941 10.8507 0.25 8 0.25C3.85087 0.25 0.46325 3.51056 0.259688 7.60916C0.249094 7.82222 0.421094 8 0.634406 8H0.947406C1.14594 8 1.31134 7.84534 1.32169 7.64709C1.50491 4.13175 4.40928 1.3125 8 1.3125C10.5894 1.3125 12.8355 2.78366 13.9465 4.9375H10.375C10.1679 4.9375 10 5.10541 10 5.3125V5.625C10 5.83209 10.1679 6 10.375 6H15.375C15.5821 6 15.75 5.83209 15.75 5.625V0.625C15.75 0.417906 15.5821 0.25 15.375 0.25ZM15.3656 8H15.0526C14.8541 8 14.6887 8.15466 14.6783 8.35291C14.495 11.8799 11.5796 14.6875 8 14.6875C5.4185 14.6875 3.1665 13.2203 2.05316 11.0625H5.625C5.83209 11.0625 6 10.8946 6 10.6875V10.375C6 10.1679 5.83209 10 5.625 10H0.625C0.417906 10 0.25 10.1679 0.25 10.375V15.375C0.25 15.5821 0.417906 15.75 0.625 15.75H0.9375C1.14459 15.75 1.3125 15.5821 1.3125 15.375V11.9179C2.65847 14.2106 5.14928 15.75 8 15.75C12.1492 15.75 15.5367 12.4894 15.7403 8.39084C15.7509 8.17778 15.5789 8 15.3656 8Z" fill="black"/>
</svg>
